<svg width="30" height="30" viewBox="0 0 30 30" fill="none" xmlns="http://www.w3.org/2000/svg">
<path d="M19.9998 2.50001C21.4598 2.49965 22.8882 2.92548 24.1098 3.72525C25.3313 4.52502 26.2929 5.66394 26.8764 7.00231C27.46 8.34067 27.6402 9.82027 27.395 11.2596C27.1498 12.6989 26.4898 14.0354 25.496 15.105L25.2585 15.3475L14.3498 26.2563L14.2835 26.3188L14.2135 26.375C13.3249 27.1411 12.1795 27.543 11.007 27.5003C9.83455 27.4575 8.72153 26.9733 7.89103 26.1445C7.06053 25.3157 6.57392 24.2037 6.52871 23.0313C6.48351 21.8589 6.88305 20.7128 7.64727 19.8225L7.83352 19.6175L7.85227 19.6038L16.9648 10.4738C17.199 10.239 17.5169 10.107 17.8484 10.1066C18.18 10.1063 18.4982 10.2377 18.7329 10.4719C18.9676 10.7061 19.0997 11.024 19.1 11.3556C19.1004 11.6871 18.969 12.0053 18.7348 12.24L9.62226 21.37L9.60726 21.38C9.23947 21.7728 9.03222 22.2891 9.0264 22.8271C9.02057 23.3652 9.21659 23.8859 9.5758 24.2865C9.935 24.6872 10.4313 24.9386 10.9668 24.9913C11.5023 25.0441 12.0381 24.8942 12.4685 24.5713L12.621 24.4463L12.6223 24.4475L23.4998 13.5725L23.6985 13.3663C24.5737 12.4043 25.0396 11.1393 24.9975 9.83951C24.9553 8.53974 24.4085 7.30752 23.4729 6.40428C22.5373 5.50105 21.2866 4.99787 19.9861 5.0015C18.6857 5.00514 17.4378 5.5153 16.5073 6.42376L16.3135 6.62376L16.291 6.63876L4.63352 18.3013C4.51738 18.4173 4.37952 18.5094 4.22781 18.5721C4.0761 18.6349 3.91351 18.6672 3.74932 18.6671C3.58514 18.6671 3.42257 18.6347 3.27091 18.5718C3.11924 18.5089 2.98145 18.4168 2.86539 18.3006C2.74933 18.1845 2.65729 18.0466 2.59451 17.8949C2.53174 17.7432 2.49945 17.5806 2.49951 17.4164C2.49963 17.0849 2.63146 16.7669 2.86601 16.5325L14.5023 4.89126L14.5598 4.83751C15.2599 4.09808 16.1036 3.50937 17.0393 3.10743C17.9749 2.7055 18.9827 2.4988 20.001 2.50001H19.9998Z" fill="black"/>
</svg>

