<svg width="40" height="40" viewBox="0 0 40 40" fill="none" xmlns="http://www.w3.org/2000/svg">
<rect width="40" height="40" rx="20" fill="white"/>
<path d="M29.71 10.29C29.575 10.1557 29.4045 10.0627 29.2185 10.0219C29.0325 9.9812 28.8388 9.99441 28.66 10.06L6.66 18.06C6.47027 18.132 6.30692 18.26 6.19165 18.427C6.07638 18.594 6.01465 18.7921 6.01465 18.995C6.01465 19.1979 6.07638 19.3961 6.19165 19.5631C6.30692 19.7301 6.47027 19.858 6.66 19.93L16.26 23.77L20.1 33.37C20.1721 33.5514 20.2958 33.7077 20.4557 33.8197C20.6157 33.9316 20.8049 33.9943 21 34C21.2021 33.9959 21.3982 33.9306 21.5624 33.8128C21.7266 33.6949 21.8513 33.5301 21.92 33.34L29.92 11.34C29.9881 11.1631 30.0046 10.9704 29.9674 10.7845C29.9302 10.5986 29.8409 10.4271 29.71 10.29ZM21 30.2L18.21 23.2L23 18.41L21.59 17L16.76 21.83L9.8 19L27.33 12.67L21 30.2Z" fill="black"/>
</svg>

